<?xml version="1.0" encoding="utf-8"?>
<!-- Generator: Adobe Illustrator 28.1.0, SVG Export Plug-In . SVG Version: 6.00 Build 0)  -->
<svg version="1.1" id="Layer_1" xmlns="http://www.w3.org/2000/svg" xmlns:xlink="http://www.w3.org/1999/xlink" x="0px" y="0px"
	 viewBox="0 0 276 59.7" style="enable-background:new 0 0 276 59.7;" xml:space="preserve">
<style type="text/css">
	.st0{fill-rule:evenodd;clip-rule:evenodd;fill:#FFFFFF;}
	.st1{fill-rule:evenodd;clip-rule:evenodd;fill:#F77F00;}
	.st2{fill-rule:evenodd;clip-rule:evenodd;fill:#373435;}
</style>
<path class="st0" d="M1.46,42.9l3.97-15.73c0,0-1.63,0.13-2.24-0.46c-0.28-0.24-0.62-0.78-0.79-1.09c-0.21-0.33-0.42-0.64-0.79-1.5
	l4.55,0.03c0,0,1.1-5.05,2.83-6.51c1.97-1.69,3.89-1.23,6.91-1.22c3.06,0.01,10.18,0.02,10.18,0.02s-0.43,1.07-0.88,1.61
	c-0.44,0.54-0.86,0.78-1.3,0.78c-0.42,0-4.88-0.01-5.53-0.01c-0.67,0-1.77-0.15-2.37,0.29c-0.59,0.44-0.88,1.12-1.01,1.75
	c-0.13,0.65-0.9,3.3-0.9,3.3l8.54,0.07c0,0-0.41,1.02-0.83,1.62c-0.41,0.6-1.09,1.27-1.52,1.26c-0.41,0-6.93-0.03-6.93-0.03
	L9.45,42.9L1.46,42.9z"/>
<path class="st0" d="M25.19,24.2c0,0,0.57,1.27,0.95,1.81c0.39,0.52,0.89,0.98,1.35,1.09c0.44,0.1,4.73,0.03,5.89,0.03
	c1.15,0,5.04-0.17,6.06,0.36c1.02,0.51,0.91,1.3,0.61,1.98c-0.29,0.68-1.16,1.72-2.67,1.72c-1.51,0-9.12,0.03-9.66,0.03
	c-0.52,0-3.3-0.19-4.65,0.77c-1.33,0.97-1.73,1.88-2.12,2.97c-0.38,1.09-0.85,2.81-0.97,3.31c-0.1,0.49-0.43,2.32-0.3,2.98
	c0.13,0.67,0.23,1.5,2.14,1.63c1.93,0.13,4.98,0.08,6.13,0.08c1.15,0,4.62,0.06,5.28-0.18c0.65-0.23,1.14-0.88,1.42-1.23
	c0.29-0.36,0.73-1.15,0.73-1.15s-3.63,0.1-4.55,0.07c-0.91-0.02-1.92-0.3-2.29-0.57c-0.39-0.28-0.75-0.83-0.47-1.97
	c0.28-1.12,0.43-1.72,0.61-2.28c0.16-0.55,0.36-1.23,0.77-1.61c0.41-0.36,1.09-0.75,2.13-0.76c1.04-0.01,7.54-0.03,7.54-0.03
	l-2.38,9.78l7.9-0.03l3.23-12.97c0,0,0.61-2.58,0.3-3.67c-0.29-1.09-1.3-2.07-3.83-2.07C41.82,24.27,25.19,24.2,25.19,24.2z"/>
<path class="st1" d="M214.38,31.43c0.66-0.06,1.3,0,1.96-0.02c15.33-1.31,22.42-15.85,33.14-24.56c0.18-0.15,0.36-0.29,0.55-0.44
	c0.56-0.44,1.13-0.86,1.71-1.27c0.01,0.03,0.03,0.05,0.04,0.08c2.26-1.35,4.86-2.22,7.65-2.46c5.91-0.52,11.43,1.89,15.11,6.02
	c-2.93-2.25-6.67-3.46-10.63-3.12c-8.38,0.73-14.61,8.16-13.88,16.54c0.73,8.38,8.16,14.61,16.54,13.88
	c2.81-0.25,5.38-1.25,7.53-2.79c-2.94,3.08-6.96,5.15-11.51,5.55c-0.13,0.01-0.26,0.02-0.39,0.03
	c-12.32,2.44-22.62-0.25-36.56,13.13c-2.11,2.74-5.32,4.63-9.03,4.96c-1.33,0.12-2.64,0.02-3.88-0.25c0.46,0.02,0.92,0,1.39-0.04
	c6.3-0.55,10.99-6.14,10.44-12.44c-0.55-6.3-6.14-10.99-12.44-10.44c-3.09,0.27-5.8,1.76-7.68,3.94
	C206.48,34.27,210.09,31.81,214.38,31.43z"/>
<path class="st0" d="M75.88,24.38c0,0-15.98-0.04-16.27-0.04c-0.31,0-3.53-0.25-5.38,1.16c-1.37,1.01-1.96,2.53-2.32,3.62
	c-0.31,0.93-0.93,3.59-1.03,4c-0.1,0.39-0.28,1.69-0.01,2.11c0.32,0.49,0.52,1.15,2.24,1.16c1.77,0,5.38-0.05,7.25-0.05
	c1.89,0,3.9,0.01,4.41,0.21c0.49,0.2,1.15,0.52,1.28,1.55c0.09,0.73-0.07,1.85-0.64,2.24c-0.49,0.36-5.02,0.18-6.11,0.18L48.3,40.49
	c0,0,0.29,1.19,1.39,2.05c0.81,0.67,4.65,0.45,6.06,0.49c0,0,10.01,0.06,10.96,0.03c0.96-0.03,2.65-0.06,4.13-1.14
	c1.5-1.09,2.15-2.14,2.86-4.79c0.71-2.63,0.74-2.63,0.9-3.49c0.16-0.86,0.2-1.38-0.3-2.05c-0.49-0.65-2-0.77-3.79-0.77
	c-1.79,0-7.88-0.02-8.39-0.02c-0.49,0-2.37-0.1-3.04-0.82c-0.65-0.73-0.48-1.24-0.35-1.66c0.13-0.42,0.39-1.19,3.17-1.15
	c2.18,0.04,10.06,0.02,10.6,0.03c0.52,0,1.61,0,2.21-0.79C75.31,25.62,75.88,24.38,75.88,24.38z"/>
<path class="st0" d="M84.35,19.79c0.11,0,7.95,0.02,7.95,0.02l-1.23,4.56l8.39-0.01c0,0-0.23,1.12-0.95,2.01
	c-0.64,0.81-1.76,0.91-2.39,0.92c-0.37,0.02-5.74-0.01-5.74-0.01s-2.43,9.64-2.54,9.96c-0.11,0.34-0.49,1.87-0.31,2.24
	c0.19,0.42,0.91,1.21,3.67,1.18c2.88-0.04,4.94-0.04,4.94-0.04s-0.67,1.25-1.01,1.69c-0.26,0.37-0.62,0.73-1.14,0.76
	c-0.54,0.05-8.58,0.03-8.58,0.03s-2.97-0.04-3.51-0.06c-0.5,0-1.64-0.17-2.16-1.03c-0.53-0.88-0.37-2.67,0.06-4.18
	c0.41-1.51,2.59-10.58,2.59-10.58s-1.4-0.02-1.87-0.23c-0.31-0.13-0.89-0.54-1.4-1.32c-0.29-0.47-0.66-1.37-0.66-1.37l4.68,0.01
	L84.35,19.79z"/>
<path class="st0" d="M98.81,43.02l3.97-15.68c0,0,0.3-1.43,0.69-1.92c0.38-0.5,0.86-0.99,2.15-0.99c1.28,0,5.48,0.06,5.48,0.06
	s-3.4,13.81-3.66,14.64c-0.26,0.84-0.46,2.27-0.87,2.84c-0.42,0.57-0.62,1.12-2.25,1.2C102.69,43.26,98.81,43.02,98.81,43.02z"/>
<path class="st0" d="M124.28,24.53c0,0,0.42,1.06,0.91,1.69c0.49,0.65,0.94,1.14,1.36,1.26c0.41,0.12,5.4,0.01,6.45,0.01
	c1.06,0,4.16-0.14,5.11,0.16c0.94,0.31,1.48,0.65,1.13,1.86c-0.34,1.2-1.43,1.93-2.28,1.99c-0.83,0.08-5.54-0.01-6.65-0.02
	c-1.09,0-5.02-0.24-6.99,0.41c-1.97,0.63-2.46,1.23-3.41,3.73c-0.95,2.48-1.1,4.3-1.15,4.71c-0.03,0.42-0.18,1.79,0.45,2.24
	c0.65,0.46,2.19,0.64,4.58,0.64c2.37,0.01,6.54,0.02,7.2,0.02c0.68,0,1.56,0.26,2.77-1.54l0.65-0.94c0,0-3.71,0.06-4.5,0.05
	c-0.8,0-2.15-0.41-2.42-0.69c-0.26-0.26-0.6-1.09-0.17-2.6c0.41-1.51,0.49-2.6,1.32-3.31c0.83-0.73,2.99-0.76,4.2-0.75
	c1.2,0,5.33,0.09,5.33,0.09l-2.3,9.62l7.87,0.1c0,0,3.09-12.23,3.17-12.72c0.07-0.49,0.84-3.85-0.07-4.96
	c-0.91-1.09-4.22-0.95-5.78-0.96C139.51,24.63,124.28,24.53,124.28,24.53z"/>
<path class="st0" d="M173.22,24.54c0,0-14.57-0.04-15.48-0.04c-0.91,0-2.41,0.06-3.84,1.05c-1.45,0.97-2.35,2.06-3,4.11
	c-0.64,2.03-1.76,7.07-2.02,8.04c-0.26,0.99-0.58,2.71-0.27,3.63c0.29,0.91,1.05,1.89,3.54,1.94c2.5,0.04,11.18,0.03,11.9,0.03
	c0.73,0,1.85,0.18,2.51-0.45c0.64-0.65,1.32-2.04,1.32-2.04s-7.1-0.05-8.24-0.13c-1.12-0.07-2.4-0.27-2.75-0.9
	c-0.34-0.65,0.15-2.65,0.47-3.93c0.3-1.28,1.36-5.59,1.48-5.96c0.12-0.39,0.43-1.51,0.83-1.9c0.42-0.37,1.17-0.55,2.16-0.55
	c0.98,0,8.58,0.02,8.79,0.02c0.68,0,1.38-0.58,1.83-1.3C172.73,25.69,173.22,24.54,173.22,24.54z"/>
<path class="st0" d="M178.1,16.83l-6.71,26.39l8.01,0.13l1.94-7.91l5-3.16l3.39,11.03l7.22,0.02l-5-15.07c0,0,1.56-0.65,2.43-1.86
	c0.85-1.2,1.62-3.43,1.62-3.43l-13.38,7.53l3.51-13.7L178.1,16.83z"/>
<path class="st0" d="M110.9,28.58c0,0,1.09-2.08,2.41-2.95c1.34-0.86,2.8-1.12,4.88-1.11c2.08,0.01,3.28-0.04,3.28-0.04
	s-0.6,1.4-1.06,2c-0.46,0.62-1.01,1.28-1.66,1.28c-0.63,0-3.4-0.04-4.45,0.04C113.25,27.86,111.31,28.24,110.9,28.58z"/>
<rect x="-690.38" y="-4291.17" class="st2" width="348.04" height="348.04"/>
</svg>
